<?xml version="1.0" encoding="UTF-8" standalone="no"?>
<svg
   xmlns:dc="http://purl.org/dc/elements/1.1/"
   xmlns:cc="http://creativecommons.org/ns#"
   xmlns:rdf="http://www.w3.org/1999/02/22-rdf-syntax-ns#"
   xmlns:svg="http://www.w3.org/2000/svg"
   xmlns="http://www.w3.org/2000/svg"
   viewBox="0 0 400 400"
   height="400"
   width="400"
   id="svg2"
   version="1.1">
  <title
     id="title">logo_bitcoin-i-love-you</title>
  <metadata
     id="metadata8">
    <rdf:RDF>
      <cc:Work
         rdf:about="">
        <dc:format>image/svg+xml</dc:format>
        <dc:type
           rdf:resource="http://purl.org/dc/dcmitype/StillImage" />
        <dc:title>logo_bitcoin-i-love-you</dc:title>
      </cc:Work>
    </rdf:RDF>
  </metadata>
  <defs
     id="defs6" />
  <g
     style="fill:#000000"
     id="g">
    <path
       id="path_B"
       d="M 173.6,328.4 V 312.8 H 156 138.4 V 293.2 273.6 H 120.8 103.2 V 258 242.4 H 85.6 68 V 223.2 204 H 52 36 V 151.2 98.4 H 52 68 V 80.8 63.2 h 54.4 54.4 V 80.8 98.4 H 194.4 212 V 80.8 63.2 h 54.4 54.4 v 17.6 17.6 h 16 16 v 52.8 52.8 h -16 -16 v 19.2 19.2 H 303.2 285.6 V 258 273.6 H 268 250.4 v 19.6 19.6 H 232.8 215.2 V 328.4 344 H 194.4 173.6 Z M 184,264 v -8.8 h 11.2 11.2 v 8.8 8.8 h 8.4 8.4 v -8.8 -8.8 h 7.6 7.6 v -8.8 -8.8 h 8.8 8.8 V 220 202.4 h -8.8 -8.8 v -9.2 -9.2 h 8.8 8.8 v -17.6 -17.6 h -8.8 -8.8 v -8.8 -8.8 h -7.6 -7.6 v -8.4 -8.4 h -8.4 -8.4 v 8.4 8.4 H 195.2 184 v -8.4 -8.4 h -8.4 -8.4 v 8.4 8.4 H 149.6 132 v 62 62 h 17.6 17.6 v 8.8 8.8 h 8.4 8.4 z M 167.2,220 V 202.4 H 194 220.8 V 220 237.6 H 194 167.2 Z m 0,-53.2 v -18 h 26.8 26.8 v 18 18 H 194 167.2 Z"
       style="display:inline;fill:#000000;stroke-width:0.80000001" />
  </g>
</svg>
